# Blender v2.79 (sub 0) OBJ File: 'hexagon.blend'
# www.blender.org
mtllib hexagon.mtl
o Circle
v 0.000000 -10.000000 -1.000000
v -0.866025 -10.000000 -0.500000
v -0.866025 -10.000000 0.500000
v 0.000000 -10.000000 1.000000
v 0.866025 -10.000000 0.500000
v 0.866025 -10.000000 -0.500000
v 0.000000 0.000000 -1.000000
v -0.866025 0.000000 -0.500000
v -0.866025 0.000000 0.500000
v 0.000000 0.000000 1.000000
v 0.866025 0.000000 0.500000
v 0.866025 0.000000 -0.500000
v 0.000000 0.000000 -0.000000
vn 1.0000 0.0000 0.0000
vn -0.5000 0.0000 0.8660
vn -0.5000 0.0000 -0.8660
vn 0.5000 0.0000 -0.8660
vn 0.5000 0.0000 0.8660
vn -1.0000 0.0000 0.0000
vn 0.0000 1.0000 0.0000
usemtl None
s off
f 6//1 12//1 11//1 5//1
f 4//2 10//2 9//2 3//2
f 2//3 8//3 7//3 1//3
f 1//4 7//4 12//4 6//4
f 5//5 11//5 10//5 4//5
f 3//6 9//6 8//6 2//6
f 8//7 9//7 13//7
f 9//7 10//7 13//7
f 11//7 13//7 10//7
f 11//7 12//7 13//7
f 12//7 7//7 13//7
f 7//7 8//7 13//7
