# Blender v2.79 (sub 0) OBJ File: 'hexagonHill.blend'
# www.blender.org
mtllib hexagonHill.mtl
o Circle
v 0.000000 0.000000 -1.000000
v -0.866025 0.000000 -0.500000
v -0.866025 0.000000 0.500000
v 0.000000 0.000000 1.000000
v 0.866025 0.000000 0.500000
v 0.866025 0.000000 -0.500000
v 0.000000 0.100000 -1.000000
v -0.866025 0.100000 -0.500000
v -0.866025 0.100000 0.500000
v 0.000000 0.100000 1.000000
v 0.866025 0.100000 0.500000
v 0.866025 0.100000 -0.500000
v 0.000000 0.158287 -0.000000
v -0.577350 0.100000 -0.666667
v -0.288675 0.100000 -0.833333
v -0.866025 0.100000 0.166667
v -0.866025 0.100000 -0.166667
v -0.288675 0.100000 0.833333
v -0.577350 0.100000 0.666667
v 0.577350 0.100000 0.666667
v 0.288675 0.100000 0.833333
v 0.866025 0.100000 -0.166667
v 0.866025 0.100000 0.166667
v 0.288675 0.100000 -0.833333
v 0.577350 0.100000 -0.666667
v 0.288675 0.159574 0.166667
v 0.577350 0.107659 0.333333
v -0.577350 0.134508 -0.333333
v -0.288675 0.147922 -0.166667
v -0.577350 0.154788 0.333333
v -0.288675 0.145468 0.166667
v 0.000000 0.150134 0.666667
v 0.000000 0.128487 0.333333
v 0.577350 0.130558 -0.333333
v 0.288675 0.133203 -0.166667
v 0.000000 0.125580 -0.666667
v 0.000000 0.148087 -0.333333
v -0.288675 0.134342 -0.500000
v 0.288675 0.130111 -0.500000
v 0.577350 0.140462 0.000000
v 0.288675 0.119424 0.500000
v -0.288675 0.103926 0.500000
v -0.577350 0.147766 0.000000
vn 1.0000 -0.0000 0.0000
vn -0.5000 -0.0000 0.8660
vn -0.5000 0.0000 -0.8660
vn 0.5000 0.0000 -0.8660
vn 0.5000 -0.0000 0.8660
vn -1.0000 0.0000 0.0000
vn -0.1187 0.9929 0.0000
vn -0.0932 0.9825 0.1615
vn 0.0133 0.9996 0.0230
vn 0.0265 0.9996 0.0000
vn 0.0526 0.9944 -0.0912
vn -0.0441 0.9961 -0.0764
vn -0.0182 0.9994 -0.0306
vn -0.0086 0.9977 -0.0674
vn -0.0241 0.9989 -0.0407
vn -0.0229 0.9989 -0.0407
vn -0.0290 0.9943 -0.1024
vn -0.0591 0.9930 -0.1023
vn -0.0588 0.9930 -0.1028
vn -0.0593 0.9929 -0.1028
vn 0.0690 0.9971 -0.0305
vn 0.0038 0.9999 -0.0093
vn 0.0568 0.9983 -0.0093
vn 0.0232 0.9975 -0.0674
vn 0.0511 0.9945 -0.0912
vn 0.0519 0.9946 -0.0898
vn 0.0363 0.9953 -0.0899
vn 0.0441 0.9961 -0.0764
vn 0.0411 0.9960 -0.0788
vn 0.1215 0.9878 0.0972
vn 0.0205 0.9967 -0.0788
vn -0.0080 0.9995 -0.0297
vn 0.0827 0.9918 0.0976
vn 0.1388 0.9903 0.0000
vn 0.1220 0.9921 -0.0295
vn 0.1053 0.9944 0.0000
vn 0.0856 0.9853 0.1482
vn 0.0336 0.9977 0.0581
vn 0.1384 0.9887 0.0576
vn 0.0686 0.9955 -0.0647
vn 0.0539 0.9983 0.0229
vn 0.1089 0.9869 0.1189
vn -0.0378 0.9921 0.1195
vn -0.0558 0.9945 0.0889
vn 0.0072 0.9960 0.0890
vn 0.1029 0.9871 0.1230
vn -0.0130 0.9922 0.1237
vn -0.1214 0.9905 -0.0643
vn 0.0800 0.9836 0.1617
vn -0.0068 0.9999 0.0118
vn -0.1646 0.9863 0.0116
vn -0.0856 0.9853 0.1482
vn -0.0401 0.9992 0.0074
vn -0.0235 0.9989 -0.0397
vn 0.0037 1.0000 0.0074
vn 0.0201 0.9996 -0.0211
vn -0.1410 0.9892 -0.0393
vn -0.1632 0.9866 0.0000
vn -0.1749 0.9844 -0.0207
vn -0.1865 0.9825 0.0000
usemtl None
s off
f 6//1 12//1 22//1 23//1 11//1 5//1
f 4//2 10//2 18//2 19//2 9//2 3//2
f 2//3 8//3 14//3 15//3 7//3 1//3
f 1//4 7//4 24//4 25//4 12//4 6//4
f 5//5 11//5 20//5 21//5 10//5 4//5
f 3//6 9//6 16//6 17//6 8//6 2//6
f 8//7 17//7 28//7
f 9//8 19//8 30//8
f 11//9 27//9 20//9
f 11//10 23//10 27//10
f 12//11 25//11 34//11
f 7//12 15//12 36//12
f 37//13 29//13 13//13
f 36//14 38//14 37//14
f 37//15 38//15 29//15
f 38//16 28//16 29//16
f 36//17 15//17 38//17
f 15//18 14//18 38//18
f 38//19 14//19 28//19
f 14//20 8//20 28//20
f 35//21 37//21 13//21
f 34//22 39//22 35//22
f 35//23 39//23 37//23
f 39//24 36//24 37//24
f 34//25 25//25 39//25
f 25//26 24//26 39//26
f 39//27 24//27 36//27
f 24//28 7//28 36//28
f 26//29 35//29 13//29
f 27//30 40//30 26//30
f 26//31 40//31 35//31
f 40//32 34//32 35//32
f 27//33 23//33 40//33
f 23//34 22//34 40//34
f 40//35 22//35 34//35
f 22//36 12//36 34//36
f 21//37 32//37 10//37
f 20//38 41//38 21//38
f 21//39 41//39 32//39
f 41//40 33//40 32//40
f 20//41 27//41 41//41
f 27//42 26//42 41//42
f 41//43 26//43 33//43
f 26//44 13//44 33//44
f 31//45 33//45 13//45
f 30//46 42//46 31//46
f 31//47 42//47 33//47
f 42//48 32//48 33//48
f 30//49 19//49 42//49
f 19//50 18//50 42//50
f 42//51 18//51 32//51
f 18//52 10//52 32//52
f 29//53 31//53 13//53
f 28//54 43//54 29//54
f 29//55 43//55 31//55
f 43//56 30//56 31//56
f 28//57 17//57 43//57
f 17//58 16//58 43//58
f 43//59 16//59 30//59
f 16//60 9//60 30//60
